<?xml version="1.0" standalone="no"?><!DOCTYPE svg PUBLIC "-//W3C//DTD SVG 1.1//EN" "http://www.w3.org/Graphics/SVG/1.1/DTD/svg11.dtd"><svg t="1527508226840" class="icon" style="" viewBox="0 0 1024 1024" version="1.1" xmlns="http://www.w3.org/2000/svg" p-id="8155" xmlns:xlink="http://www.w3.org/1999/xlink" width="200" height="200"><defs><style type="text/css"></style></defs><path d="M512 1006.656c-10.56 0-20.992-0.384-31.424-1.024a32.064 32.064 0 0 1-16.896-5.952C337.792 909.12 259.584 722.24 259.584 512S337.856 114.944 463.68 24.448a31.744 31.744 0 0 1 16.576-5.952c19.456-1.344 39.296-1.344 58.56-0.384a32.384 32.384 0 0 1 17.088 5.952C682.112 114.496 760.512 301.44 760.512 512c0 210.688-78.464 397.632-204.608 487.936a32 32 0 0 1-16.96 5.952 468.288 468.288 0 0 1-26.944 0.768z m-18.304-64.448c10.688 0.576 21.696 0.576 32.384 0.192 103.808-79.744 170.432-247.232 170.432-430.4 0-183.04-66.624-350.592-170.432-430.4a451.968 451.968 0 0 0-32.256 0.192C390.144 161.6 323.584 329.152 323.584 512s66.496 350.336 170.112 430.208z" fill="#9D9D9E" p-id="8156"></path><path d="M974.208 544H49.344a32 32 0 0 1 0-64h924.864a32 32 0 0 1 0 64z" fill="#9D9D9E" p-id="8157"></path><path d="M512 1006.656C239.232 1006.656 17.344 784.768 17.344 512S239.232 17.344 512 17.344 1006.656 239.232 1006.656 512 784.768 1006.656 512 1006.656zM512 81.344C274.496 81.344 81.344 274.56 81.344 512S274.496 942.656 512 942.656 942.656 749.44 942.656 512 749.504 81.344 512 81.344z" fill="#9D9D9E" p-id="8158"></path><path d="M512 333.312a688 688 0 0 1-361.728-102.4 31.936 31.936 0 1 1 33.6-54.4c196.736 121.344 459.328 121.408 656.256 0a32.064 32.064 0 0 1 33.6 54.464A688.832 688.832 0 0 1 512 333.312zM855.488 853.952a31.488 31.488 0 0 1-16.768-4.736c-196.224-120.384-457.216-120.384-653.568 0a32 32 0 1 1-33.472-54.528c216.448-132.864 504-132.864 720.512 0a32 32 0 0 1-16.704 59.264z" fill="#9D9D9E" p-id="8159"></path></svg>